<svg xmlns="http://www.w3.org/2000/svg" width="19.002" height="19.002" viewBox="0 0 19.002 19.002"><defs><style>.a{fill:#d02727;}</style></defs><path class="a" d="M12,2.5A9.5,9.5,0,1,0,21.5,12,9.51,9.51,0,0,0,12,2.5Zm-1.04,4.34A1.365,1.365,0,0,1,12,6.38a1.4,1.4,0,0,1,1.4,1.4v.18l-.72,5.8a2.547,2.547,0,0,0-1.34-.02l-.74-5.8a1.527,1.527,0,0,1,.36-1.1ZM12,17.621a1.409,1.409,0,0,1-1.4-1.42A1.392,1.392,0,0,1,12,14.8a1.409,1.409,0,0,1,1.42,1.4A1.44,1.44,0,0,1,12,17.621Z" transform="translate(-2.5 -2.5)"/></svg>