<svg xmlns="http://www.w3.org/2000/svg" width="12.421" height="12.421" viewBox="0 0 12.421 12.421"><defs><style>.a{fill:#f4f4f4;}</style></defs><g transform="translate(-5.102 -5)"><path class="a" d="M5.1,5V17.421H17.523V5Zm11.869.552v5.01H5.654V5.552ZM5.654,11.114h7.591v5.755H5.654ZM13.8,16.869V11.114h3.174v5.755Z" transform="translate(0)"/><path class="a" d="M16.814,55.37a1.72,1.72,0,0,0-1.049.607l-1.353-.787A3.16,3.16,0,0,1,16.8,53.8V55.37Zm3.036.166-1.366.787a1.548,1.548,0,0,1,0,1.214l1.366.787a3.143,3.143,0,0,0,.331-1.394,3.1,3.1,0,0,0-.331-1.393Zm-4.251.787-1.366-.787a3.1,3.1,0,0,0,0,2.788l1.366-.787a1.489,1.489,0,0,1-.124-.607,1.7,1.7,0,0,1,.124-.608Zm2.471-.608c.027-.042.042-.1.069-.138,0-.014.014-.027.014-.042.055-.124.111-.249.166-.359,0-.014.014-.014.014-.027.027-.055.042-.1.069-.152a.047.047,0,0,1,.014-.027c.027-.055.055-.124.083-.18a1.666,1.666,0,0,1,.069-.152.047.047,0,0,1,.014-.027.91.91,0,0,0,.055-.138v-.014a.654.654,0,0,0,.055-.152v-.014c.083-.207.152-.373.18-.469-.069.083-.166.221-.3.4l-.014.014a29472.327,29472.327,0,0,1-.193.248c-.014.014-.014.027-.027.027l-.083.124c0,.014-.014.014-.014.027-.042.055-.069.1-.111.152,0,.014-.014.014-.014.027l-.083.124c-.014.014-.027.027-.027.042-.083.111-.152.207-.235.318-.014.014-.014.027-.027.027l-.083.124c-.014-.025-.014-.012-.028,0-.469.635-.883,1.228-.939,1.311a.393.393,0,1,0,.676.4c.055-.083.359-.732.676-1.449.015-.013.015-.027.029-.027Zm.745-1.38c-.166.414-.414.966-.649,1.491a1.382,1.382,0,0,1,.124.152l1.353-.787a3.482,3.482,0,0,0-.828-.856Zm-.345-.207a3.194,3.194,0,0,0-1.242-.331V55.37a1.668,1.668,0,0,1,.276.055c.345-.455.7-.938.966-1.3Z" transform="translate(-7.586 -42.062)"/><path class="a" d="M14.328,17.036H13.5V13.765h.828ZM15.639,13.2h-.828v3.837h.828Zm1.311,1.725h-.828v2.112h.828Zm1.311-.649h-.828v2.76h.828Zm1.311-.511h-.828v3.271h.828Zm1.311,1.159h-.828v2.112h.828Zm1.311.884h-.828v1.228h.828Zm1.311-.428h-.828v1.656h.828Z" transform="translate(-7.239 -7.067)"/><path class="a" d="M71,53.5h2.346v.676H71Z" transform="translate(-56.803 -41.806)"/><path class="a" d="M71,63.2h1.767v.676H71Z" transform="translate(-56.803 -50.167)"/><path class="a" d="M71,72.5h1.256v.676H71Z" transform="translate(-56.803 -58.184)"/><path class="a" d="M71,81.7h1.767v.676H71Z" transform="translate(-56.803 -66.113)"/></g></svg>