<svg xmlns="http://www.w3.org/2000/svg" width="19.378" height="19.55" viewBox="0 0 19.378 19.55"><defs><style>.a{fill:#46878e;}</style></defs><g transform="translate(-16.5 -16.597)"><path class="a" d="M35.444,19H30.093v-1.5a1.027,1.027,0,0,0-1.127-.9H23.412a1.026,1.026,0,0,0-1.127.9V19H16.934a.434.434,0,0,0,0,.868H18.38l1.127,13.853a2.432,2.432,0,0,0,2.458,2.429h8.417a2.45,2.45,0,0,0,2.458-2.429L34,19.866h1.446a.434.434,0,1,0,0-.868ZM23.152,17.552a.413.413,0,0,1,.26-.058h5.553a.847.847,0,0,1,.26.058v1.475H23.151ZM32,33.69v.029a1.6,1.6,0,0,1-1.591,1.591H21.966a1.6,1.6,0,0,1-1.591-1.591L19.248,19.867H33.1Z"/><path class="a" d="M40.246,48.82a.434.434,0,0,0,.434-.463L40.361,41.3a.435.435,0,0,0-.868.059l.319,7.056A.42.42,0,0,0,40.246,48.82Z" transform="translate(-16.341 -17.269)"/><path class="a" d="M56.9,48.827a.448.448,0,0,0,.463-.4l.319-7.056a.435.435,0,1,0-.868-.059l-.319,7.056A.4.4,0,0,0,56.9,48.827Z" transform="translate(-28.423 -17.276)"/></g></svg>