<svg xmlns="http://www.w3.org/2000/svg" width="15.275" height="23.807" viewBox="0 0 15.275 23.807"><defs><style>.a{fill:#fff;}</style></defs><g transform="translate(-17.932)"><path class="a" d="M26.477,0C22.906.166,20.1,3.179,19.82,7.047h6.657Z" transform="translate(-1.438)"/><path class="a" d="M51.531.211v7H57.8c-.268-3.869-2.7-6.547-6.267-7Zm3.812,4.131a.679.679,0,1,1,.48-.2.679.679,0,0,1-.48.2Z" transform="translate(-25.6 -0.161)"/><path class="a" d="M29.825,39.59a14.145,14.145,0,0,1,3.964-3.66,7.641,7.641,0,0,0-6.633,2.187,8.041,8.041,0,0,0,2.669,1.473Z" transform="translate(-7.028 -27.305)"/><path class="a" d="M19.655,47.613a7.64,7.64,0,0,0-1.148,7.737A40.8,40.8,0,0,1,22.375,49.1a8.848,8.848,0,0,1-2.72-1.488Z" transform="translate(0 -36.278)"/><path class="a" d="M54.108,75c-.095.271-.208.432-.33.432a.439.439,0,0,1-.3-.342c-4.121.682-7,2.911-7.16,5.764a7.6,7.6,0,0,0,8.328-5.913c-.179.018-.353.035-.541.06Z" transform="translate(-21.63 -57.098)"/><path class="a" d="M34.47,57.577a8.4,8.4,0,0,1,.119-1.488,33.031,33.031,0,0,1-8.749-1.378,39.023,39.023,0,0,0-4.121,6.747A7.652,7.652,0,0,0,26.751,65.3c.259-3.041,3.476-5.473,7.836-6.225a8.328,8.328,0,0,1-.116-1.5Z" transform="translate(-2.885 -41.686)"/><path class="a" d="M80.047,60.727h-.378a8.525,8.525,0,0,1,.113,1.443,8.681,8.681,0,0,1-.1,1.362l.491-.047a7.522,7.522,0,0,0-.127-2.758Z" transform="translate(-47.039 -46.27)"/><path class="a" d="M49.628,41.77c.116,0,.226.146.318.4h.366a7.65,7.65,0,0,0-5.059-5c-1.19.36-2.738,1.613-4.395,3.628a33.157,33.157,0,0,0,8.466,1.339c.086-.22.19-.361.3-.361Z" transform="translate(-17.469 -28.317)"/></g></svg>