<svg xmlns="http://www.w3.org/2000/svg" width="20" height="20.007" viewBox="0 0 20 20.007"><defs><style>.a{fill:#46878e;}</style></defs><g transform="translate(-10.707 -10.69)"><path class="a" d="M28.772,30.227a1.719,1.719,0,0,1-1.693,1.722H13.529a1.719,1.719,0,0,1-1.693-1.722V16.677a1.672,1.672,0,0,1,1.693-1.666h7.9V13.883h-7.9a2.8,2.8,0,0,0-2.822,2.8V30.227a2.849,2.849,0,0,0,2.822,2.85H27.078a2.849,2.849,0,0,0,2.822-2.85V22.351H28.771v7.876Z" transform="translate(0 -2.38)"/><path class="a" d="M52.332,11.331a2.311,2.311,0,0,0-3.194,0L41.564,18.9a.556.556,0,0,0-.148.261l-.8,3.194a.57.57,0,0,0,.148.537.564.564,0,0,0,.4.165.54.54,0,0,0,.137-.017l3.194-.8a.564.564,0,0,0,.261-.148l7.574-7.574a2.257,2.257,0,0,0,0-3.194Zm-8.261,9.858-2.129.532.532-2.129,6.266-6.266,1.6,1.6Zm7.463-7.464-.4.4-1.6-1.6.4-.4a1.156,1.156,0,0,1,1.6,0,1.128,1.128,0,0,1,0,1.6Z" transform="translate(-22.287)"/></g></svg>