<svg xmlns="http://www.w3.org/2000/svg" width="20.611" height="20.611" viewBox="0 0 20.611 20.611"><defs><style>.a{fill:#46878e;stroke:#46878e;}</style></defs><path class="a" d="M24.61,14.69A9.755,9.755,0,0,0,14.8,5a.436.436,0,1,0,0,.872,8.823,8.823,0,0,1,3.7,16.881V19.817a.436.436,0,1,0-.872,0v3.922a.436.436,0,0,0,.436.436H22a.435.435,0,0,0,.443-.483A.436.436,0,0,0,22,23.3H19.36a9.709,9.709,0,0,0,5.25-8.614Zm-9.363,9.438a.436.436,0,0,0-.443-.388,8.825,8.825,0,0,1-3.7-16.887V9.794a.436.436,0,1,0,.872,0V5.871a.436.436,0,0,0-.436-.436H7.621a.436.436,0,0,0-.331.73.44.44,0,0,0,.331.141h2.628a9.691,9.691,0,0,0,4.555,18.3.435.435,0,0,0,.443-.483Z" transform="translate(-4.499 -4.5)"/></svg>