<svg xmlns="http://www.w3.org/2000/svg" width="16" height="15.997" viewBox="0 0 16 15.997"><defs><style>.a{fill:#243240;}</style></defs><path class="a" d="M22.872,7.595a.3.3,0,0,0-.172-.172A6.683,6.683,0,0,0,16.723,8.5a17.739,17.739,0,0,0-3.866,4.336,6.448,6.448,0,0,0-5.062,2.169.292.292,0,0,0,.239.486c.022,0,2.2-.162,3.154.586L12.5,17.385l-1.151,1.15a.292.292,0,0,0,.413.413L12.909,17.8l1.307,1.308c.747.957.587,3.132.586,3.154h0a.292.292,0,0,0,.486.24,6.451,6.451,0,0,0,2.169-5.062,17.773,17.773,0,0,0,4.337-3.866,6.686,6.686,0,0,0,1.078-5.977Zm-10.4,5.827c-.567.882-.988,1.626-1.2,2.016A5.729,5.729,0,0,0,8.735,14.9h0a5.974,5.974,0,0,1,3.737-1.474ZM15.4,21.56a5.714,5.714,0,0,0-.542-2.536c.389-.213,1.135-.635,2.017-1.2h0A5.936,5.936,0,0,1,15.4,21.559Zm5.921-8.329c-1.8,2.492-5.9,4.821-6.829,5.326L13.32,17.385l1.966-1.966a.292.292,0,1,0-.413-.413l-1.964,1.967L11.738,15.8c.5-.926,2.834-5.032,5.326-6.829a6.272,6.272,0,0,1,5.3-1.045,6.245,6.245,0,0,1-1.046,5.3ZM18.833,9.886a1.575,1.575,0,1,0,1.114.462,1.574,1.574,0,0,0-1.114-.462Zm.7,2.278a1.018,1.018,0,0,1-1.4,0,.992.992,0,1,1,1.4,0Zm-9.272,8.279L8.251,22.456a.292.292,0,0,1-.413-.412l2.013-2.013a.292.292,0,1,1,.413.413Zm-.688-2.171L7.676,20.6a.291.291,0,0,1-.412.044.293.293,0,0,1-.04-.413l1.9-2.326a.292.292,0,0,1,.452.369Zm2.859,2.489a.292.292,0,0,1-.042.411l-2.326,1.9a.292.292,0,0,1-.369-.452l2.326-1.9h0a.291.291,0,0,1,.409.042Z" transform="translate(-7.157 -7.138)"/></svg>