<svg xmlns="http://www.w3.org/2000/svg" width="10.925" height="10.923" viewBox="0 0 10.925 10.923"><defs><style>.a{fill:#243240;}</style></defs><path class="a" d="M17.887,7.45a.2.2,0,0,0-.118-.118,4.564,4.564,0,0,0-4.081.737,12.113,12.113,0,0,0-2.64,2.961,4.4,4.4,0,0,0-3.457,1.481.2.2,0,0,0,.163.332,3.97,3.97,0,0,1,2.154.4l.893.892-.786.785a.2.2,0,0,0,.282.282l.786-.785.892.893a3.97,3.97,0,0,1,.4,2.154h0a.2.2,0,0,0,.332.164,4.4,4.4,0,0,0,1.481-3.457,12.136,12.136,0,0,0,2.962-2.64,4.565,4.565,0,0,0,.736-4.081Zm-7.1,3.979c-.387.6-.675,1.11-.82,1.376a3.912,3.912,0,0,0-1.731-.37h0a4.079,4.079,0,0,1,2.552-1.006Zm2,5.557a3.9,3.9,0,0,0-.37-1.731c.266-.145.775-.434,1.377-.821h0a4.053,4.053,0,0,1-1.007,2.552ZM16.828,11.3a16.24,16.24,0,0,1-4.663,3.637l-.8-.8,1.342-1.342a.2.2,0,1,0-.282-.282l-1.341,1.343-.8-.8a16.224,16.224,0,0,1,3.637-4.663,4.283,4.283,0,0,1,3.62-.714,4.264,4.264,0,0,1-.714,3.62Zm-1.7-2.284a1.075,1.075,0,1,0,.761.315,1.075,1.075,0,0,0-.761-.315Zm.48,1.556a.7.7,0,0,1-.959,0,.677.677,0,1,1,.959,0ZM9.278,16.223,7.9,17.6a.2.2,0,0,1-.282-.281L9,15.942a.2.2,0,1,1,.282.282Zm-.47-1.482-1.3,1.588a.2.2,0,0,1-.281.03.2.2,0,0,1-.027-.282l1.3-1.588a.2.2,0,0,1,.309.252Zm1.952,1.7a.2.2,0,0,1-.028.28l-1.588,1.3a.2.2,0,0,1-.252-.309l1.588-1.3h0a.2.2,0,0,1,.279.028Z" transform="translate(-7.157 -7.138)"/></svg>