<svg xmlns="http://www.w3.org/2000/svg" width="20.174" height="20.336" viewBox="0 0 20.174 20.336"><defs><style>.a{fill:#f4f4f4;}</style></defs><path class="a" d="M12.311,24.668a.473.473,0,0,1-.174-.034.462.462,0,0,1-.29-.431V19.422a.469.469,0,0,1,.105-.295l5.47-6.643L10.04,18.771a.466.466,0,0,1-.536.047L4.924,16.125a.464.464,0,0,1,.006-.8L24.176,4.393a.464.464,0,0,1,.685.49L21.446,22.923a.463.463,0,0,1-.66.331l-4.68-2.3-3.462,3.575a.463.463,0,0,1-.333.142Zm.464-5.079v3.469l2.9-2.994h0a.464.464,0,0,1,.537-.093l4.436,2.182L23.764,5.694,6.087,15.733l3.6,2.119L20.81,8.381a.464.464,0,0,1,.659.648Z" transform="translate(-4.695 -4.332)"/></svg>