<svg xmlns="http://www.w3.org/2000/svg" width="21.668" height="17.921" viewBox="0 0 21.668 17.921"><defs><style>.a{fill:#f4f4f4;}</style></defs><g transform="translate(-3.719 -14.778)"><path class="a" d="M4.2,17.766h11.17a2.5,2.5,0,0,0,4.924,0h4.614a.479.479,0,1,0,0-.959H20.291a2.507,2.507,0,0,0-4.922,0H4.2a.479.479,0,0,0,0,.959Zm13.633-2.029a1.517,1.517,0,0,1,1.55,1.55,1.551,1.551,0,1,1-3.1,0,1.517,1.517,0,0,1,1.551-1.55Z"/><path class="a" d="M24.907,44.338H15.1a2.522,2.522,0,0,0-5,0H4.2a.479.479,0,0,0,0,.959h5.94a2.538,2.538,0,0,0,4.925,0h9.844a.479.479,0,1,0,0-.959ZM12.576,46.262a1.6,1.6,0,0,1-1.55-1.446v-.1a1.576,1.576,0,1,1,3.152,0v.08a1.616,1.616,0,0,1-1.6,1.47Z" transform="translate(-0.001 -21.078)"/><path class="a" d="M24.907,72.688H20.292a2.507,2.507,0,0,0-4.922,0H4.2a.479.479,0,0,0,0,.959h11.17a2.5,2.5,0,0,0,4.924,0h4.614a.479.479,0,1,0,0-.959ZM17.832,74.77a1.56,1.56,0,1,1,1.111-.475,1.56,1.56,0,0,1-1.111.475Z" transform="translate(-0.001 -43.03)"/></g></svg>